<?xml version="1.0" encoding="utf-8"?>
<!-- Generator: Adobe Illustrator 24.0.2, SVG Export Plug-In . SVG Version: 6.00 Build 0)  -->
<svg version="1.1" id="Capa_1" xmlns="http://www.w3.org/2000/svg" xmlns:xlink="http://www.w3.org/1999/xlink" x="0px" y="0px"
	 viewBox="0 0 9600 1080" style="enable-background:new 0 0 9600 1080;" xml:space="preserve">
<style type="text/css">
	.st0{fill:#F4D9D9;}
	.st1{fill:none;stroke:#000000;stroke-width:3;stroke-miterlimit:10;}
	.st2{stroke:#000000;stroke-width:3;stroke-miterlimit:10;}
	.st3{font-family:'MyriadPro-Regular';}
	.st4{font-size:43px;}
	.st5{font-size:49.5603px;}
</style>
<g>
	<rect x="0.5" y="0.5" class="st0" width="9599" height="1079"/>
	<path d="M9599,1v1078H1V1H9599 M9600,0H0v1080h9600V0L9600,0z"/>
</g>
<line class="st1" x1="960" y1="540" x2="8640" y2="540"/>
<circle class="st2" cx="960.5" cy="540.5" r="25"/>
<circle class="st2" cx="2918.5" cy="539.5" r="25"/>
<circle class="st2" cx="4825.5" cy="540.5" r="25"/>
<circle class="st2" cx="6740.5" cy="540.5" r="25"/>
<circle class="st2" cx="8639.5" cy="540.5" r="25"/>
<text transform="matrix(1 0 0 1 911.8979 456.1162)" class="st3 st4">HOLI</text>
<text transform="matrix(1 0 0 1 2879.7271 455.7401)" class="st3 st4">HOLI2</text>
<text transform="matrix(1 0 0 1 4777.1016 431.0041)" class="st3 st4">HOLI3</text>
<text transform="matrix(1 0 0 1 6681.4263 455.382)" class="st3 st4">HOLI4</text>
<text transform="matrix(0.8676 0 0 1 8600.2939 431.2852)" class="st3 st5">HOLI5</text>
</svg>
